<svg width="226" height="37" viewBox="0 0 226 37" fill="none" xmlns="http://www.w3.org/2000/svg">
<path d="M18.3139 35.7809C13.1565 35.7809 8.88035 34.1318 5.48558 30.8336C2.12345 27.5037 0.442383 23.3651 0.442383 18.4178C0.442383 13.4705 2.12345 9.34775 5.48558 6.04955C8.88035 2.71964 13.1565 1.05469 18.3139 1.05469C21.4149 1.05469 24.2874 1.76824 26.9314 3.19534C29.5754 4.62245 31.6482 6.54111 33.1497 8.95133L25.5604 13.1851C24.9076 12.0117 23.9283 11.092 22.6226 10.426C21.3496 9.72831 19.9134 9.37946 18.3139 9.37946C15.572 9.37946 13.3523 10.2199 11.6549 11.9007C9.99018 13.5498 9.1578 15.7221 9.1578 18.4178C9.1578 21.1134 9.99018 23.3017 11.6549 24.9825C13.3523 26.6316 15.572 27.4561 18.3139 27.4561C19.9134 27.4561 21.3496 27.1231 22.6226 26.4571C23.9283 25.7594 24.9076 24.808 25.5604 23.6029L33.1497 27.8842C31.6482 30.3262 29.5754 32.2607 26.9314 33.6878C24.32 35.0832 21.4475 35.7809 18.3139 35.7809Z" fill="#001659"/>
<path d="M109.117 1.76824V35.0673H100.401V17.1334L92.0775 30.5006H91.1961L82.9214 17.181V35.0673H74.157V1.76824H82.9214L91.6368 15.9917L100.401 1.76824H109.117Z" fill="#001659"/>
<path d="M127.879 1.76824C131.339 1.76824 134.244 2.86235 136.594 5.05058C138.945 7.23881 140.12 10.0296 140.12 13.4229C140.12 16.8163 138.945 19.607 136.594 21.7953C134.244 23.9835 131.339 25.0776 127.879 25.0776H123.325V35.0673H114.561V1.76824H127.879ZM127.879 16.9907C128.858 16.9907 129.674 16.6577 130.327 15.9917C131.013 15.3257 131.355 14.4695 131.355 13.4229C131.355 12.3764 131.013 11.536 130.327 10.9017C129.674 10.2357 128.858 9.90273 127.879 9.90273H123.325V16.9907H127.879Z" fill="#001659"/>
<path d="M161.241 35.0673L159.772 30.2628H148.364L146.895 35.0673H137.396L148.706 1.76824H159.38L170.691 35.0673H161.241ZM150.616 22.937H157.52L154.043 11.6153L150.616 22.937Z" fill="#001659"/>
<path d="M184.657 35.7809C181.034 35.7809 178.031 35.0356 175.648 33.5451C173.265 32.0546 171.601 30.0408 170.654 27.5037L178.145 23.2699C179.418 26.2193 181.671 27.694 184.902 27.694C187.579 27.694 188.917 26.9487 188.917 25.4582C188.917 24.4751 188.15 23.6822 186.616 23.0797C185.963 22.826 184.527 22.3978 182.307 21.7953C179.174 20.9073 176.693 19.6705 174.865 18.0848C173.037 16.4674 172.123 14.2316 172.123 11.3774C172.123 8.30121 173.249 5.8117 175.501 3.9089C177.786 2.00609 180.626 1.05469 184.021 1.05469C186.893 1.05469 189.439 1.70481 191.659 3.00506C193.879 4.30531 195.576 6.19226 196.751 8.66591L189.407 12.8521C188.33 10.3784 186.551 9.14161 184.07 9.14161C183.025 9.14161 182.226 9.34775 181.671 9.76002C181.148 10.1723 180.887 10.6956 180.887 11.3298C180.887 12.0592 181.279 12.6777 182.062 13.1851C182.878 13.6925 184.445 14.2792 186.763 14.9452C188.428 15.4209 189.766 15.8649 190.778 16.2771C191.79 16.6894 192.9 17.292 194.107 18.0848C195.315 18.8459 196.213 19.8449 196.8 21.0817C197.388 22.2868 197.682 23.7139 197.682 25.363C197.682 28.6295 196.49 31.1824 194.107 33.0218C191.724 34.8612 188.574 35.7809 184.657 35.7809Z" fill="#001659"/>
<path d="M212.534 35.7809C208.911 35.7809 205.907 35.0356 203.525 33.5451C201.142 32.0546 199.477 30.0408 198.53 27.5037L206.022 23.2699C207.295 26.2193 209.547 27.694 212.779 27.694C215.455 27.694 216.794 26.9487 216.794 25.4582C216.794 24.4751 216.027 23.6822 214.492 23.0797C213.839 22.826 212.403 22.3978 210.184 21.7953C207.05 20.9073 204.569 19.6705 202.741 18.0848C200.913 16.4674 199.999 14.2316 199.999 11.3774C199.999 8.30121 201.125 5.8117 203.378 3.9089C205.663 2.00609 208.503 1.05469 211.897 1.05469C214.77 1.05469 217.316 1.70481 219.536 3.00506C221.755 4.30531 223.453 6.19226 224.628 8.66591L217.283 12.8521C216.206 10.3784 214.427 9.14161 211.946 9.14161C210.902 9.14161 210.102 9.34775 209.547 9.76002C209.025 10.1723 208.764 10.6956 208.764 11.3298C208.764 12.0592 209.155 12.6777 209.939 13.1851C210.755 13.6925 212.322 14.2792 214.639 14.9452C216.304 15.4209 217.642 15.8649 218.654 16.2771C219.666 16.6894 220.776 17.292 221.984 18.0848C223.191 18.8459 224.089 19.8449 224.677 21.0817C225.264 22.2868 225.558 23.7139 225.558 25.363C225.558 28.6295 224.367 31.1824 221.984 33.0218C219.601 34.8612 216.451 35.7809 212.534 35.7809Z" fill="#001659"/>
<path d="M53.0225 3.88867C58.9718 3.88867 63.7947 8.71187 63.7949 14.6611C63.7949 21.1195 60.5528 24.7086 53.043 32.2285C44.7675 23.7128 42.25 19.8055 42.25 14.6611C42.2502 8.712 47.0733 3.88888 53.0225 3.88867Z" stroke="#001659" stroke-width="6.704"/>
<path d="M52.6309 10.9268C52.7848 10.8476 52.9383 10.8055 53.0938 10.877C53.2331 10.9412 53.3458 11.0863 53.4648 11.2783L53.5283 11.3916C53.6256 11.5866 53.6758 11.8268 53.7197 12.2764L53.7725 12.9258L53.8096 13.4209C53.8227 13.5748 53.8364 13.7155 53.8496 13.835C53.8569 13.9005 53.8653 13.959 53.8721 14.0098C53.8788 14.0063 53.8858 14.0035 53.8926 14C54.3725 13.7528 54.9537 13.4727 55.3203 13.3672L55.4961 13.3203C57.3104 12.8936 59.0003 14.2005 58.8389 16.0146L58.8398 16.0156C58.8281 16.1644 58.8063 16.287 58.7578 16.4189C58.734 16.4837 58.704 16.5495 58.667 16.6211L58.5332 16.8574C58.4173 17.0498 58.3332 17.177 58.2305 17.2842C58.1789 17.3379 58.1237 17.3854 58.0596 17.4336L57.834 17.5879C57.646 17.7088 57.3703 17.8234 57.1406 17.8945C57.0256 17.9302 56.9153 17.9563 56.8291 17.9668C56.7875 17.9719 56.7422 17.9742 56.7021 17.9678C56.6761 17.9636 56.6009 17.9454 56.5693 17.8701L56.5674 17.8711C56.5646 17.8652 56.5633 17.8592 56.5615 17.8535C56.5609 17.8515 56.5591 17.8498 56.5586 17.8477L56.5596 17.8467C56.5491 17.806 56.5596 17.7721 56.5654 17.7578C56.5737 17.7378 56.5851 17.7216 56.5928 17.7119C56.6088 17.6919 56.6292 17.6727 56.6484 17.6562C56.6887 17.6219 56.7429 17.5829 56.7998 17.5469L56.8037 17.5449L56.875 17.4912C56.9513 17.4233 57.0402 17.3143 57.123 17.1846C57.232 17.0141 57.3137 16.8331 57.3369 16.707C57.4788 15.9008 56.814 15.2061 55.9365 15.1875L55.8398 15.1846L55.8389 15.1914C55.7794 15.1842 55.7215 15.1822 55.665 15.1836C55.5838 15.192 55.4886 15.2071 55.3848 15.2266C55.0275 15.327 54.7405 15.5908 54.5215 15.8828C54.3706 16.084 54.258 16.291 54.1826 16.4482C54.1451 16.5266 54.1171 16.5921 54.0986 16.6377C54.0894 16.6605 54.0826 16.6786 54.0781 16.6904C54.0759 16.6963 54.0733 16.7003 54.0723 16.7031C54.0718 16.7044 54.0715 16.7054 54.0713 16.7061V16.707L54.0312 16.8203L54.001 16.8115C53.9932 16.8311 53.9838 16.8569 53.9736 16.8906C53.9313 17.0312 53.876 17.2915 53.8154 17.7676L53.7529 18.3193L53.665 19.2236L54.2373 19.9629L54.4746 20.2754C54.5475 20.3745 54.6127 20.4673 54.668 20.5479C54.7232 20.6283 54.7695 20.6983 54.8018 20.752C54.8178 20.7785 54.8315 20.8035 54.8418 20.8242C54.8468 20.8343 54.8523 20.8452 54.8564 20.8564C54.8593 20.8641 54.8672 20.887 54.8672 20.9141C54.8672 20.9599 54.8588 21.0077 54.835 21.0518C54.8105 21.097 54.7733 21.1307 54.7295 21.1533C54.6478 21.1954 54.5466 21.1961 54.4482 21.1816C54.2972 21.1593 54.0984 21.0934 53.8555 20.9893L53.5977 20.8721L52.8818 20.5273L52.1592 20.8721C51.8323 21.0286 51.6173 21.1249 51.4629 21.168C51.384 21.1899 51.3127 21.2007 51.2451 21.1953C51.1776 21.1899 51.1217 21.1681 51.0703 21.1387V21.1396C51.0459 21.1269 51.0171 21.1116 50.9922 21.0938C50.9669 21.0757 50.9369 21.0494 50.916 21.0107C50.8694 20.9242 50.8974 20.8349 50.9307 20.7656C50.9654 20.6935 51.0265 20.6027 51.1123 20.4854C51.1996 20.3661 51.3176 20.211 51.4727 20.0098L51.7891 19.5898C51.8717 19.4772 51.9331 19.39 51.9785 19.3242C52.0239 19.2585 52.053 19.2139 52.0703 19.1865C52.0714 19.1849 52.0723 19.1832 52.0732 19.1816C52.0723 19.1667 52.0696 19.1509 52.0693 19.1357C52.0686 19.0973 52.0691 19.0512 52.0703 19C52.0727 18.8976 52.0784 18.7672 52.083 18.6279C52.09 18.4165 52.0951 18.1805 52.0879 17.9639L52.0762 17.7549C52.054 17.489 51.9917 17.243 51.9316 17.0586C51.9017 16.9668 51.8726 16.8912 51.8496 16.8369C51.8381 16.8099 51.8286 16.7883 51.8213 16.7734C51.812 16.7546 51.8105 16.7542 51.8154 16.7607L51.8057 16.7471L51.7988 16.7314C51.7393 16.585 51.6306 16.0402 51.2256 15.6348C51.129 15.5381 51.0161 15.45 50.8828 15.3799C50.6264 15.2927 50.408 15.2579 50.3271 15.2578H50.3115L50.2959 15.2549C50.1582 15.221 50.0213 15.2137 49.8887 15.2275C49.8617 15.2307 49.8344 15.235 49.8066 15.2393C49.1938 15.3465 48.6987 15.9207 48.7285 16.584L48.7432 16.6904C48.7662 16.8066 48.8143 16.9484 48.8789 17.0859C48.9443 17.2251 49.0191 17.3438 49.0859 17.4209L49.1494 17.4834L49.1533 17.4863L49.2891 17.6143C49.3061 17.6332 49.3246 17.6547 49.3379 17.6768C49.3443 17.6874 49.3528 17.7047 49.3584 17.7256C49.3624 17.7405 49.3682 17.7754 49.3525 17.8145L49.3535 17.8154C49.3527 17.8176 49.3505 17.8192 49.3496 17.8213C49.3471 17.8266 49.3452 17.8325 49.3418 17.8379L49.3389 17.8359C49.2976 17.9067 49.2213 17.9162 49.1953 17.917C49.1547 17.9182 49.11 17.9098 49.0693 17.8994C48.9853 17.8779 48.8799 17.8372 48.7705 17.7871C48.6063 17.7119 48.4198 17.6085 48.2646 17.501L48.1221 17.3936C47.9627 17.2591 47.8571 17.1611 47.7686 17.041C47.7245 16.9812 47.6854 16.9176 47.6465 16.8428L47.5234 16.5791C47.4415 16.3921 47.387 16.2498 47.3564 16.1152C47.3254 15.9782 47.3196 15.8541 47.3271 15.7051C47.4023 13.8267 49.3647 12.7384 51.1562 13.5312H51.1572C51.3601 13.6192 51.6262 13.7762 51.9014 13.9512C51.906 13.915 51.9131 13.8761 51.918 13.834C51.9455 13.5951 51.9752 13.2725 52.0029 12.9258L52.0391 12.4619C52.0772 12.0381 52.1233 11.7329 52.1895 11.5098C52.234 11.3595 52.2894 11.2396 52.3633 11.1436C52.4384 11.046 52.5282 10.9781 52.6309 10.9268ZM53.917 16.7891H53.918L53.9209 16.79C53.9225 16.7904 53.9241 16.7907 53.9258 16.791H53.9268L53.917 16.7881V16.7891Z" fill="#001659" stroke="#001659" stroke-width="0.257045"/>
</svg>
