<svg width="40" height="40" viewBox="0 0 40 40" fill="none" xmlns="http://www.w3.org/2000/svg">
<rect width="40" height="40" rx="20" fill="white"/>
<rect x="0.5" y="0.5" width="39" height="39" rx="19.5" stroke="#FFC400" stroke-opacity="0.2"/>
<g clip-path="url(#clip0_798_13116)">
<path fill-rule="evenodd" clip-rule="evenodd" d="M16.8573 10.2581C15.7291 10.2581 14.6472 10.7062 13.8494 11.504L10 15.3534V17.1153C10 18.3602 10.5347 19.4802 11.387 20.258C10.5347 21.0359 10 22.1559 10 23.4008V25.1628L13.8494 29.0121C14.6472 29.8099 15.7291 30.2581 16.8573 30.2581C18.1021 30.2581 19.2221 29.7234 20 28.871C20.7779 29.7234 21.8979 30.2581 23.1427 30.2581C24.2709 30.2581 25.3528 29.8099 26.1506 29.0121L30 25.1628V23.4008C30 22.1559 29.4653 21.0359 28.613 20.258C29.4653 19.4802 30 18.3602 30 17.1153V15.3534L26.1506 11.504C25.3528 10.7062 24.2709 10.2581 23.1427 10.2581C21.8979 10.2581 20.7779 10.7928 20 11.6451C19.2221 10.7928 18.1021 10.2581 16.8573 10.2581ZM22.8794 20.258C22.8315 20.2143 22.7844 20.1693 22.7383 20.1233L20 17.385L17.2617 20.1233C17.2156 20.1693 17.1686 20.2143 17.1206 20.258C17.1686 20.3018 17.2156 20.3468 17.2617 20.3928L20 23.1312L22.7383 20.3928C22.7844 20.3468 22.8315 20.3018 22.8794 20.258ZM21.1111 25.1628V26.0042C21.1111 27.1262 22.0207 28.0359 23.1427 28.0359C23.6815 28.0359 24.1983 27.8218 24.5793 27.4408L27.7778 24.2423V23.4008C27.7778 22.2788 26.8682 21.3692 25.7462 21.3692C25.2074 21.3692 24.6906 21.5832 24.3097 21.9642L21.1111 25.1628ZM18.8889 25.1628L15.6904 21.9642C15.3094 21.5832 14.7926 21.3692 14.2538 21.3692C13.1318 21.3692 12.2222 22.2788 12.2222 23.4008V24.2423L15.4208 27.4408C15.8018 27.8218 16.3185 28.0359 16.8573 28.0359C17.9793 28.0359 18.8889 27.1262 18.8889 26.0042V25.1628ZM18.8889 14.5119V15.3534L15.6904 18.5519C15.3094 18.9329 14.7926 19.1469 14.2538 19.1469C13.1318 19.1469 12.2222 18.2373 12.2222 17.1153V16.2738L15.4208 13.0753C15.8018 12.6943 16.3185 12.4803 16.8573 12.4803C17.9793 12.4803 18.8889 13.3899 18.8889 14.5119ZM24.3097 18.5519L21.1111 15.3534V14.5119C21.1111 13.3899 22.0207 12.4803 23.1427 12.4803C23.6815 12.4803 24.1983 12.6943 24.5793 13.0753L27.7778 16.2738V17.1153C27.7778 18.2373 26.8682 19.1469 25.7462 19.1469C25.2074 19.1469 24.6906 18.9329 24.3097 18.5519Z" fill="#FF630B"/>
</g>
<defs>
<clipPath id="clip0_798_13116">
<rect width="20" height="20.5" fill="white" transform="translate(10 10)"/>
</clipPath>
</defs>
</svg>
