<svg width="40" height="40" viewBox="0 0 40 40" fill="none" xmlns="http://www.w3.org/2000/svg">
<rect width="40" height="40" rx="20" fill="white"/>
<rect x="0.5" y="0.5" width="39" height="39" rx="19.5" stroke="#FF572F" stroke-opacity="0.2"/>
<g clip-path="url(#clip0_798_13688)">
<path d="M24.6515 22.6037C24.6515 20.1028 22.6241 18.0754 20.1232 18.0754H16.3496V22.6037H20.1232V28.2641H24.6515V22.6037Z" fill="#FF4D00"/>
<path d="M10.6895 22.9811C10.6895 25.8989 13.0547 28.2641 15.9725 28.2641H18.9913V23.7358H15.9725C15.5556 23.7358 15.2178 23.3979 15.2178 22.9811V22.6038H10.6895V22.9811Z" fill="#FF4D00"/>
<path d="M20.1234 12.415C25.7505 12.415 30.3121 16.9767 30.3121 22.6037V28.2641H25.7838V22.6037C25.7838 19.4776 23.2496 16.9433 20.1234 16.9433H15.9725C15.5556 16.9433 15.2178 17.2812 15.2178 17.6981V18.0754H10.6895V17.6981C10.6895 14.7803 13.0547 12.415 15.9725 12.415H20.1234Z" fill="#FF4D00"/>
</g>
<defs>
<clipPath id="clip0_798_13688">
<rect width="20" height="16.2264" fill="white" transform="translate(10.5 12.3867)"/>
</clipPath>
</defs>
</svg>
